<svg width="24" height="24" viewBox="0 0 24 24" fill="none" xmlns="http://www.w3.org/2000/svg">
<path d="M10.795 3.06836C11.545 2.64138 12.4597 2.64462 13.1954 3.06934L19.13 6.49609V6.49707C19.8275 6.90703 20.2738 7.62476 20.3331 8.42578L20.3399 8.58691V15.4199C20.3399 16.2835 19.8812 17.0747 19.1446 17.5V17.501L13.2081 20.9287C12.4575 21.3576 11.5416 21.356 10.8048 20.9307L4.86923 17.5029H4.87021C4.12696 17.0662 3.67001 16.2711 3.67001 15.4199V8.58008C3.67001 7.7165 4.12871 6.92526 4.86533 6.5V6.49902L10.795 3.06836ZM13.1446 14.9209C12.6591 14.5046 11.9607 14.379 11.3507 14.6299C11.1112 14.722 10.9342 14.851 10.7882 14.9824L10.7735 14.9961L10.7599 15.0098C10.4213 15.3483 10.2501 15.8025 10.2501 16.25C10.2501 16.4545 10.2815 16.6874 10.378 16.9189L10.3878 16.9424L10.3995 16.9658C10.4822 17.1312 10.5877 17.301 10.7325 17.4619L10.7589 17.4912L10.7882 17.5176C10.9302 17.6454 11.1018 17.7698 11.3311 17.8613V17.8623C11.3375 17.8649 11.3443 17.8675 11.3507 17.8701V17.8691C11.5431 17.9469 11.764 18 12.0001 18C12.4615 18 12.9045 17.826 13.2403 17.4902L13.254 17.4766L13.2677 17.4619C13.4122 17.3013 13.5287 17.1197 13.6124 16.9189C13.6944 16.7222 13.7501 16.4938 13.7501 16.25C13.7501 16.0139 13.697 15.793 13.6192 15.6006H13.6202C13.6177 15.594 13.615 15.5875 13.6124 15.5811H13.6114C13.5199 15.3517 13.3954 15.1801 13.2677 15.0381L13.254 15.0234L13.2403 15.0098L13.1446 14.9209ZM12.0001 6.25C11.1759 6.25 10.5001 6.92579 10.5001 7.75V13C10.5001 13.8242 11.1759 14.5 12.0001 14.5C12.8243 14.5 13.5001 13.8242 13.5001 13V7.75C13.5001 6.92581 12.8243 6.25004 12.0001 6.25Z" fill="#F39C12" stroke="#F39C12" stroke-width="1.5"/>
</svg>
